<svg xmlns="http://www.w3.org/2000/svg" viewBox="0 0 408.8 408.8"><title>facebook</title><path d="M353.7,0H55.1A55.1,55.1,0,0,0,0,55.1V353.7a55.1,55.1,0,0,0,55.1,55.1H202.4l.2-146.1H164.7a8.9,8.9,0,0,1-9-8.9l-.2-47.1a9,9,0,0,1,9-9h37.9V152.2c0-52.8,32.2-81.5,79.3-81.5h38.7a8.9,8.9,0,0,1,8.9,8.9v39.7a8.9,8.9,0,0,1-8.9,9H296.7c-25.7,0-30.6,12.2-30.6,30v39.4h56.3a9,9,0,0,1,8.9,10l-5.6,47.1a9,9,0,0,1-8.9,7.9H266.3l-.2,146.1h87.6a55.1,55.1,0,0,0,55.1-55.1V55.1A55.1,55.1,0,0,0,353.7,0Z" transform="translate(0)" fill="#475993"/><path d="M266.1,408.8l.2-146.1h50.5a9,9,0,0,0,8.9-7.9l5.6-47.1a9,9,0,0,0-8.9-10H266.1V158.3c0-17.8,4.9-30,30.5-30h23.8a8.9,8.9,0,0,0,8.9-9V79.6a8.9,8.9,0,0,0-8.9-8.9H281.7c-47.1,0-79.3,28.7-79.3,81.5v45.5H164.5a9,9,0,0,0-9,9l.2,47.1a8.9,8.9,0,0,0,9,8.9h37.9l-.2,146.1Z" transform="translate(0)" fill="#fff"/></svg>