<svg xmlns="http://www.w3.org/2000/svg" xmlns:xlink="http://www.w3.org/1999/xlink" viewBox="0 0 551 551"><defs><linearGradient id="a" x1="275.52" y1="595.43" x2="275.52" y2="50.28" gradientTransform="translate(0 -46)" gradientUnits="userSpaceOnUse"><stop offset="0" stop-color="#e09b3d"/><stop offset="0.3" stop-color="#c74c4d"/><stop offset="0.6" stop-color="#c21975"/><stop offset="1" stop-color="#7024c4"/></linearGradient><linearGradient id="c" x1="418.31" y1="595.43" x2="418.31" y2="50.28" xlink:href="#a"/></defs><title>instagram</title><path d="M386.9,0H164.2C73.6,0,0,73.6,0,164.2V386.9C0,477.4,73.6,551,164.2,551H386.9C477.4,551,551,477.4,551,386.9V164.2C551,73.6,477.4,0,386.9,0ZM495.6,386.9A108.7,108.7,0,0,1,386.9,495.6H164.2A108.8,108.8,0,0,1,55.4,386.9V164.2A108.8,108.8,0,0,1,164.2,55.4H386.9A108.8,108.8,0,0,1,495.6,164.2V386.9Z" transform="translate(0 0)" fill="url(#a)"/><path d="M275.5,133C196.9,133,133,196.9,133,275.5S196.9,418,275.5,418,418,354.1,418,275.5,354.1,133,275.5,133Zm0,229.6a87.1,87.1,0,1,1,87.1-87.1A87.1,87.1,0,0,1,275.5,362.6Z" transform="translate(0 0)" fill="url(#a)"/><circle cx="418.3" cy="134.1" r="34.1" fill="url(#c)"/><circle cx="275.5" cy="275.5" r="87.1" fill="#fff"/><path d="M495.6,164.2A108.8,108.8,0,0,0,386.9,55.4H164.2A108.8,108.8,0,0,0,55.4,164.2V386.9A108.8,108.8,0,0,0,164.2,495.6H386.9A108.7,108.7,0,0,0,495.6,386.9ZM275.5,418C196.9,418,133,354.1,133,275.5S196.9,133,275.5,133,418,196.9,418,275.5,354.1,418,275.5,418ZM418.3,168.2a34.2,34.2,0,1,1,34.2-34.1A34.1,34.1,0,0,1,418.3,168.2Z" transform="translate(0 0)" fill="#fff"/></svg>